<?xml version="1.0" encoding="utf-8"?>
<!-- Generator: Adobe Illustrator 15.0.0, SVG Export Plug-In . SVG Version: 6.00 Build 0)  -->
<!DOCTYPE svg PUBLIC "-//W3C//DTD SVG 1.1//EN" "http://www.w3.org/Graphics/SVG/1.1/DTD/svg11.dtd">
<svg version="1.1" id="Layer_1" xmlns="http://www.w3.org/2000/svg" xmlns:xlink="http://www.w3.org/1999/xlink" x="0px" y="0px"
	 width="600px" height="600px" viewBox="0 0 600 600" enable-background="new 0 0 600 600" xml:space="preserve">
<rect x="18" y="444" fill="#7C453C" stroke="#000000" stroke-width="4" stroke-miterlimit="10" width="163" height="39"/>
<rect x="18" y="404" fill="#7C453C" stroke="#000000" stroke-width="4" stroke-miterlimit="10" width="154" height="40"/>
<rect x="25" y="364" fill="#7C453C" stroke="#000000" stroke-width="4" stroke-miterlimit="10" width="138" height="40"/>
<rect x="25" y="324" fill="#7C453C" stroke="#000000" stroke-width="4" stroke-miterlimit="10" width="128" height="40"/>
<rect x="295" y="184" fill="#7C453C" stroke="#000000" stroke-width="4" stroke-miterlimit="10" width="163" height="39"/>
<rect x="295" y="144" fill="#7C453C" stroke="#000000" stroke-width="4" stroke-miterlimit="10" width="154" height="40"/>
<rect x="302" y="104" fill="#7C453C" stroke="#000000" stroke-width="4" stroke-miterlimit="10" width="138" height="40"/>
<rect x="302" y="64" fill="#7C453C" stroke="#000000" stroke-width="4" stroke-miterlimit="10" width="128" height="40"/>
<g>
	<rect x="72" y="201" fill="#2D1D08" width="30" height="100"/>
	<g>
		<polygon fill="#29471B" points="92,1 62,61 122,61 		"/>
		<polygon fill="#29471B" points="92,21 37,131 147,131 		"/>
		<polygon fill="#29471B" points="92,41 2,221 182,221 		"/>
	</g>
</g>
<g>
	<rect x="177" y="482" fill="#2D1D08" width="30" height="100"/>
	<g>
		<polygon fill="#29471B" points="197,282 167,342 227,342 		"/>
		<polygon fill="#29471B" points="197,302 142,412 252,412 		"/>
		<polygon fill="#29471B" points="197,322 107,502 287,502 		"/>
	</g>
</g>
<rect x="425" y="547" fill="#7C453C" stroke="#000000" stroke-width="4" stroke-miterlimit="10" width="163" height="39"/>
<rect x="425" y="507" fill="#7C453C" stroke="#000000" stroke-width="4" stroke-miterlimit="10" width="154" height="40"/>
<rect x="432" y="467" fill="#7C453C" stroke="#000000" stroke-width="4" stroke-miterlimit="10" width="138" height="40"/>
<rect x="432" y="427" fill="#7C453C" stroke="#000000" stroke-width="4" stroke-miterlimit="10" width="128" height="40"/>
<g>
	<rect x="238" y="200" fill="#2D1D08" width="30" height="100"/>
	<path fill="#3D7229" d="M358,110c0,55.234-44.775,100-100,100s-100-44.766-100-100S202.775,10,258,10S358,54.766,358,110z"/>
	<circle fill="#519136" cx="298" cy="160" r="20"/>
	<circle fill="#519136" cx="328" cy="110" r="20"/>
	<circle fill="#519136" cx="218" cy="50" r="20"/>
	<circle fill="#519136" cx="188" cy="100" r="20"/>
</g>
<g>
	<rect x="322" y="305" fill="#635050" width="200" height="100"/>
	<polyline fill="#49385A" points="542,305 302,305 422,245 	"/>
	<rect x="472" y="245" fill="#49385A" width="30" height="40"/>
	<rect x="362" y="335" fill="#2C2438" width="30" height="70"/>
	<rect x="442" y="335" fill="#2C2438" width="40" height="30"/>
</g>
</svg>
