<?xml version="1.0" encoding="utf-8"?>
<!-- Generator: Adobe Illustrator 15.0.0, SVG Export Plug-In . SVG Version: 6.00 Build 0)  -->
<!DOCTYPE svg PUBLIC "-//W3C//DTD SVG 1.1//EN" "http://www.w3.org/Graphics/SVG/1.1/DTD/svg11.dtd">
<svg version="1.1" id="Layer_1" xmlns="http://www.w3.org/2000/svg" xmlns:xlink="http://www.w3.org/1999/xlink" x="0px" y="0px"
	 width="480px" height="480px" viewBox="0 0 480 480" enable-background="new 0 0 480 480" xml:space="preserve">
<g>
	<rect x="140" y="48" fill="#873626" width="80" height="40"/>
	<polyline fill="#4F1D17" points="228,48 132,48 180,24 	"/>
	<rect x="20" y="48" fill="#635050" width="80" height="40"/>
	<polyline fill="#49385A" points="108,48 12,48 60,24 	"/>
	<rect x="156" y="60" fill="#4F1D17" width="12" height="28"/>
	<rect x="188" y="60" fill="#4F1D17" width="16" height="12"/>
	<rect x="80" y="24" fill="#49385A" width="12" height="16"/>
	<rect x="36" y="60" fill="#2C2438" width="12" height="28"/>
	<rect x="68" y="60" fill="#2C2438" width="16" height="12"/>
</g>
<path fill="#5C8951" d="M436,16H272c-13.25,0-24,10.744-24,24v100H44c-13.256,0-24,10.744-24,24v252c0,13.25,10.744,24,24,24h392
	c13.25,0,24-10.75,24-24V40C460,26.744,449.25,16,436,16z"/>
<g>
	<path fill="#D4DD26" d="M284,56h144c3.312,0,6-2.684,6-6s-2.688-6-6-6H284c-3.312,0-6,2.684-6,6S280.688,56,284,56z"/>
	<path fill="#D4DD26" d="M428,84H284c-3.312,0-6,2.684-6,6s2.688,6,6,6h144c3.312,0,6-2.684,6-6S431.312,84,428,84z"/>
	<path fill="#D4DD26" d="M428,124H284c-3.312,0-6,2.684-6,6s2.688,6,6,6h144c3.312,0,6-2.684,6-6S431.312,124,428,124z"/>
	<path fill="#D4DD26" d="M428,164H52c-3.316,0-6,2.684-6,6s2.684,6,6,6h376c3.312,0,6-2.684,6-6S431.312,164,428,164z"/>
	<path fill="#D4DD26" d="M428,204H52c-3.316,0-6,2.684-6,6s2.684,6,6,6h376c3.312,0,6-2.684,6-6S431.312,204,428,204z"/>
	<path fill="#D4DD26" d="M428,244H52c-3.316,0-6,2.688-6,6s2.684,6,6,6h376c3.312,0,6-2.688,6-6S431.312,244,428,244z"/>
	<path fill="#D4DD26" d="M428,284H52c-3.316,0-6,2.688-6,6s2.684,6,6,6h376c3.312,0,6-2.688,6-6S431.312,284,428,284z"/>
	<path fill="#D4DD26" d="M428,324H52c-3.316,0-6,2.688-6,6s2.684,6,6,6h376c3.312,0,6-2.688,6-6S431.312,324,428,324z"/>
	<path fill="#D4DD26" d="M428,364H52c-3.316,0-6,2.688-6,6s2.684,6,6,6h376c3.312,0,6-2.688,6-6S431.312,364,428,364z"/>
	<path fill="#D4DD26" d="M428,404H52c-3.316,0-6,2.688-6,6s2.684,6,6,6h376c3.312,0,6-2.688,6-6S431.312,404,428,404z"/>
</g>
<g>
	<path fill="#FFFFFF" d="M199.291,237.751c0,5.477-10.586,9.916-23.646,9.916c-13.058,0-18.732-4.439-18.732-9.916
		s5.674-9.915,18.732-9.915C188.705,227.835,199.291,232.274,199.291,237.751z"/>
	<circle fill="#FFFFFF" cx="194.735" cy="227.418" r="10.933"/>
</g>
<g>
	<path fill="#FFFFFF" d="M348.759,124.773c0,5.477-10.586,9.916-23.645,9.916s-18.733-4.439-18.733-9.916
		c0-5.476,5.675-9.915,18.733-9.915C338.173,114.857,348.759,119.297,348.759,124.773z"/>
	<circle fill="#FFFFFF" cx="344.203" cy="114.44" r="10.932"/>
</g>
<g>
	<path fill="#FFFFFF" d="M272.057,294.591c0,5.477,10.586,9.916,23.646,9.916c13.059,0,18.732-4.439,18.732-9.916
		s-5.674-9.916-18.732-9.916C282.643,284.675,272.057,289.114,272.057,294.591z"/>
	<circle fill="#FFFFFF" cx="276.613" cy="284.258" r="10.933"/>
</g>
<g>
	<path fill="#FFFFFF" d="M252.623,350.027c0,5.477-10.586,9.916-23.646,9.916c-13.059,0-18.732-4.439-18.732-9.916
		s5.674-9.916,18.732-9.916C242.037,340.111,252.623,344.551,252.623,350.027z"/>
	<circle fill="#FFFFFF" cx="248.066" cy="339.694" r="10.932"/>
</g>
</svg>
