<?xml version="1.0" encoding="utf-8"?>
<!-- Generator: Adobe Illustrator 15.0.0, SVG Export Plug-In . SVG Version: 6.00 Build 0)  -->
<!DOCTYPE svg PUBLIC "-//W3C//DTD SVG 1.1//EN" "http://www.w3.org/Graphics/SVG/1.1/DTD/svg11.dtd">
<svg version="1.1" id="Layer_1" xmlns="http://www.w3.org/2000/svg" xmlns:xlink="http://www.w3.org/1999/xlink" x="0px" y="0px"
	 width="60px" height="60px" viewBox="0 0 60 60" enable-background="new 0 0 60 60" xml:space="preserve">
<path opacity="0.75" fill="none" stroke="#42210B" stroke-width="2" stroke-linecap="round" stroke-miterlimit="10" d="
	M35.562,35.01c0,0,3.207-3.27,10.219-3.27S56,35.01,56,35.01"/>
<path opacity="0.75" fill="none" stroke="#42210B" stroke-width="2" stroke-linecap="round" stroke-miterlimit="10" d="M3.562,55.01
	c0,0,3.207-3.27,10.219-3.27S24,55.01,24,55.01"/>
<path opacity="0.75" fill="none" stroke="#42210B" stroke-width="2" stroke-linecap="round" stroke-miterlimit="10" d="M7.562,28.01
	c0,0,3.207-3.27,10.219-3.27S28,28.01,28,28.01"/>
<path opacity="0.75" fill="none" stroke="#42210B" stroke-width="2" stroke-linecap="round" stroke-miterlimit="10" d="
	M21.562,46.01c0,0,3.207-3.27,10.219-3.27S42,46.01,42,46.01"/>
<path opacity="0.75" fill="none" stroke="#42210B" stroke-width="2" stroke-linecap="round" stroke-miterlimit="10" d="M4.438,8.01
	c0,0,3.207-3.27,10.219-3.27s10.219,3.27,10.219,3.27"/>
<path opacity="0.75" fill="none" stroke="#42210B" stroke-width="2" stroke-linecap="round" stroke-miterlimit="10" d="
	M30.438,19.01c0,0,3.207-3.27,10.219-3.27s10.219,3.27,10.219,3.27"/>
</svg>
