<?xml version="1.0" encoding="utf-8"?>
<!-- Generator: Adobe Illustrator 15.0.0, SVG Export Plug-In . SVG Version: 6.00 Build 0)  -->
<!DOCTYPE svg PUBLIC "-//W3C//DTD SVG 1.1//EN" "http://www.w3.org/Graphics/SVG/1.1/DTD/svg11.dtd">
<svg version="1.1" id="Layer_3" xmlns="http://www.w3.org/2000/svg" xmlns:xlink="http://www.w3.org/1999/xlink" x="0px" y="0px"
	 width="600px" height="600px" viewBox="0 0 600 600" enable-background="new 0 0 600 600" xml:space="preserve">
<g id="Layer_1">
	<rect x="100" y="100" fill="#8E8E8E" width="400" height="400"/>
	<g id="Layer_2">
	</g>
</g>
<g>
	<rect x="502" y="499" fill="#7C453C" stroke="#000000" stroke-width="4" stroke-miterlimit="10" width="96" height="40"/>
	<rect x="502" y="459" fill="#7C453C" stroke="#000000" stroke-width="4" stroke-miterlimit="10" width="96" height="40"/>
	<rect x="502" y="419" fill="#7C453C" stroke="#000000" stroke-width="4" stroke-miterlimit="10" width="96" height="40"/>
	<rect x="502" y="380" fill="#7C453C" stroke="#000000" stroke-width="4" stroke-miterlimit="10" width="96" height="39"/>
	<rect x="502" y="340" fill="#7C453C" stroke="#000000" stroke-width="4" stroke-miterlimit="10" width="96" height="40"/>
	<rect x="502" y="300" fill="#7C453C" stroke="#000000" stroke-width="4" stroke-miterlimit="10" width="96" height="40"/>
	<rect x="502" y="260" fill="#7C453C" stroke="#000000" stroke-width="4" stroke-miterlimit="10" width="96" height="40"/>
	<rect x="502" y="221" fill="#7C453C" stroke="#000000" stroke-width="4" stroke-miterlimit="10" width="96" height="39"/>
	<rect x="502" y="181" fill="#7C453C" stroke="#000000" stroke-width="4" stroke-miterlimit="10" width="96" height="40"/>
	<rect x="502" y="141" fill="#7C453C" stroke="#000000" stroke-width="4" stroke-miterlimit="10" width="96" height="40"/>
	<rect x="502" y="101" fill="#7C453C" stroke="#000000" stroke-width="4" stroke-miterlimit="10" width="96" height="40"/>
	<g>
		<rect x="2" y="499" fill="#7C453C" stroke="#000000" stroke-width="4" stroke-miterlimit="10" width="96" height="40"/>
		<rect x="2" y="459" fill="#7C453C" stroke="#000000" stroke-width="4" stroke-miterlimit="10" width="96" height="40"/>
		<rect x="2" y="419" fill="#7C453C" stroke="#000000" stroke-width="4" stroke-miterlimit="10" width="96" height="40"/>
		<rect x="2" y="380" fill="#7C453C" stroke="#000000" stroke-width="4" stroke-miterlimit="10" width="96" height="39"/>
		<rect x="2" y="340" fill="#7C453C" stroke="#000000" stroke-width="4" stroke-miterlimit="10" width="96" height="40"/>
		<rect x="2" y="300" fill="#7C453C" stroke="#000000" stroke-width="4" stroke-miterlimit="10" width="96" height="40"/>
		<rect x="2" y="260" fill="#7C453C" stroke="#000000" stroke-width="4" stroke-miterlimit="10" width="96" height="40"/>
		<rect x="2" y="221" fill="#7C453C" stroke="#000000" stroke-width="4" stroke-miterlimit="10" width="96" height="39"/>
		<rect x="2" y="181" fill="#7C453C" stroke="#000000" stroke-width="4" stroke-miterlimit="10" width="96" height="40"/>
		<rect x="2" y="141" fill="#7C453C" stroke="#000000" stroke-width="4" stroke-miterlimit="10" width="96" height="40"/>
		<rect x="2" y="101" fill="#7C453C" stroke="#000000" stroke-width="4" stroke-miterlimit="10" width="96" height="40"/>
		<g>
			<rect x="502" y="539" fill="#7C453C" stroke="#000000" stroke-width="4" stroke-miterlimit="10" width="96" height="39"/>
			<rect x="2" y="539" fill="#7C453C" stroke="#000000" stroke-width="4" stroke-miterlimit="10" width="96" height="39"/>
			<g>
				<rect x="2" y="502" fill="#7C453C" stroke="#000000" stroke-width="4" stroke-miterlimit="10" width="40" height="96"/>
				<rect x="42" y="502" fill="#7C453C" stroke="#000000" stroke-width="4" stroke-miterlimit="10" width="39" height="96"/>
				<rect x="81" y="502" fill="#7C453C" stroke="#000000" stroke-width="4" stroke-miterlimit="10" width="40" height="96"/>
				<rect x="121" y="502" fill="#7C453C" stroke="#000000" stroke-width="4" stroke-miterlimit="10" width="40" height="96"/>
				<rect x="161" y="502" fill="#7C453C" stroke="#000000" stroke-width="4" stroke-miterlimit="10" width="40" height="96"/>
				<rect x="201" y="502" fill="#7C453C" stroke="#000000" stroke-width="4" stroke-miterlimit="10" width="39" height="96"/>
				<rect x="240" y="502" fill="#7C453C" stroke="#000000" stroke-width="4" stroke-miterlimit="10" width="40" height="96"/>
				<rect x="280" y="502" fill="#7C453C" stroke="#000000" stroke-width="4" stroke-miterlimit="10" width="40" height="96"/>
				<rect x="320" y="502" fill="#7C453C" stroke="#000000" stroke-width="4" stroke-miterlimit="10" width="40" height="96"/>
				<rect x="360" y="502" fill="#7C453C" stroke="#000000" stroke-width="4" stroke-miterlimit="10" width="39" height="96"/>
				<rect x="399" y="502" fill="#7C453C" stroke="#000000" stroke-width="4" stroke-miterlimit="10" width="40" height="96"/>
				<rect x="439" y="502" fill="#7C453C" stroke="#000000" stroke-width="4" stroke-miterlimit="10" width="40" height="96"/>
				<rect x="479" y="502" fill="#7C453C" stroke="#000000" stroke-width="4" stroke-miterlimit="10" width="40" height="96"/>
				<rect x="519" y="502" fill="#7C453C" stroke="#000000" stroke-width="4" stroke-miterlimit="10" width="39" height="96"/>
				<rect x="558" y="502" fill="#7C453C" stroke="#000000" stroke-width="4" stroke-miterlimit="10" width="40" height="96"/>
			</g>
		</g>
		<g>
			<rect x="502" y="62" fill="#7C453C" stroke="#000000" stroke-width="4" stroke-miterlimit="10" width="96" height="39"/>
			<rect x="502" y="22" fill="#7C453C" stroke="#000000" stroke-width="4" stroke-miterlimit="10" width="96" height="40"/>
			<rect x="2" y="62" fill="#7C453C" stroke="#000000" stroke-width="4" stroke-miterlimit="10" width="96" height="39"/>
			<rect x="2" y="22" fill="#7C453C" stroke="#000000" stroke-width="4" stroke-miterlimit="10" width="96" height="40"/>
			<rect x="2" y="2" fill="#7C453C" stroke="#000000" stroke-width="4" stroke-miterlimit="10" width="40" height="96"/>
			<rect x="42" y="2" fill="#7C453C" stroke="#000000" stroke-width="4" stroke-miterlimit="10" width="39" height="96"/>
			<rect x="81" y="2" fill="#7C453C" stroke="#000000" stroke-width="4" stroke-miterlimit="10" width="40" height="96"/>
			<rect x="121" y="2" fill="#7C453C" stroke="#000000" stroke-width="4" stroke-miterlimit="10" width="40" height="96"/>
			<rect x="161" y="2" fill="#7C453C" stroke="#000000" stroke-width="4" stroke-miterlimit="10" width="40" height="96"/>
			<rect x="201" y="2" fill="#7C453C" stroke="#000000" stroke-width="4" stroke-miterlimit="10" width="39" height="96"/>
			<rect x="240" y="2" fill="#7C453C" stroke="#000000" stroke-width="4" stroke-miterlimit="10" width="40" height="96"/>
			<rect x="280" y="2" fill="#7C453C" stroke="#000000" stroke-width="4" stroke-miterlimit="10" width="40" height="96"/>
			<rect x="320" y="2" fill="#7C453C" stroke="#000000" stroke-width="4" stroke-miterlimit="10" width="40" height="96"/>
			<rect x="360" y="2" fill="#7C453C" stroke="#000000" stroke-width="4" stroke-miterlimit="10" width="39" height="96"/>
			<rect x="399" y="2" fill="#7C453C" stroke="#000000" stroke-width="4" stroke-miterlimit="10" width="40" height="96"/>
			<rect x="439" y="2" fill="#7C453C" stroke="#000000" stroke-width="4" stroke-miterlimit="10" width="40" height="96"/>
			<rect x="479" y="2" fill="#7C453C" stroke="#000000" stroke-width="4" stroke-miterlimit="10" width="40" height="96"/>
			<rect x="519" y="2" fill="#7C453C" stroke="#000000" stroke-width="4" stroke-miterlimit="10" width="39" height="96"/>
			<rect x="558" y="2" fill="#7C453C" stroke="#000000" stroke-width="4" stroke-miterlimit="10" width="40" height="96"/>
		</g>
	</g>
	<rect x="217" y="131" fill="#8E8E8E" width="10" height="132"/>
</g>
<rect x="221" y="247" fill="#635050" width="10" height="70"/>
<g>
	<image overflow="visible" opacity="0.75" width="260" height="352" xlink:href="9021016E.png"  transform="matrix(1 0 0 1 91 9)">
	</image>
	<g>
		<polygon points="139,57 139,77 149,77 159,163 293,313 293,77 303,77 303,57 		"/>
	</g>
</g>
<rect x="137" y="57" fill="#231D2D" width="167" height="20"/>
<rect x="230" y="170" fill="#635050" width="240" height="147"/>
<rect x="147" y="77" fill="#635050" width="147" height="240"/>
<g>
	<rect x="351" y="247" fill="#2C2438" width="40" height="30"/>
	<rect x="411" y="247" fill="#2C2438" width="40" height="30"/>
	<rect x="291" y="247" fill="#2C2438" width="40" height="30"/>
</g>
<rect x="177" y="247" fill="#2C2438" width="90" height="70"/>
<g>
	<rect x="227" y="107" fill="#2C2438" width="40" height="30"/>
	<rect x="177" y="107" fill="#2C2438" width="40" height="30"/>
</g>
<rect x="217" y="110" fill="#635050" width="10" height="207"/>
<rect x="294" y="170" fill="#231D2D" width="186" height="20"/>
<g>
	<rect x="227" y="331" fill="#2E2E93" width="290" height="60"/>
	<rect x="237" y="341" fill="#20204C" width="10" height="40"/>
	<rect x="257" y="341" fill="#20204C" width="10" height="40"/>
	<rect x="277" y="341" fill="#20204C" width="10" height="40"/>
	<rect x="297" y="341" fill="#20204C" width="10" height="40"/>
	<rect x="317" y="341" fill="#20204C" width="10" height="40"/>
	<rect x="337" y="341" fill="#20204C" width="10" height="40"/>
	<rect x="357" y="341" fill="#20204C" width="10" height="40"/>
	<rect x="377" y="341" fill="#20204C" width="10" height="40"/>
	<rect x="397" y="341" fill="#20204C" width="10" height="40"/>
	<rect x="417" y="341" fill="#20204C" width="10" height="40"/>
	<rect x="437" y="341" fill="#20204C" width="10" height="40"/>
	<rect x="457" y="341" fill="#20204C" width="10" height="40"/>
	<rect x="477" y="341" fill="#20204C" width="10" height="40"/>
	<rect x="497" y="341" fill="#20204C" width="10" height="40"/>
</g>
<g>
	<rect x="449" y="444" fill="#F9F9F9" width="20" height="20"/>
	<rect x="419" y="444" fill="#F9F9F9" width="20" height="20"/>
</g>
<g>
	<rect x="105" y="529" fill="#F9F9F9" width="20" height="20"/>
	<rect x="75" y="529" fill="#F9F9F9" width="20" height="20"/>
</g>
</svg>
