<?xml version="1.0" encoding="utf-8"?>
<!-- Generator: Adobe Illustrator 15.0.0, SVG Export Plug-In . SVG Version: 6.00 Build 0)  -->
<!DOCTYPE svg PUBLIC "-//W3C//DTD SVG 1.1//EN" "http://www.w3.org/Graphics/SVG/1.1/DTD/svg11.dtd">
<svg version="1.1" id="Layer_1" xmlns="http://www.w3.org/2000/svg" xmlns:xlink="http://www.w3.org/1999/xlink" x="0px" y="0px"
	 width="600px" height="600px" viewBox="0 0 600 600" enable-background="new 0 0 600 600" xml:space="preserve">
<path fill="#6B6B6B" d="M177.814,361c-0.147-62.667,21.856-59.043,37.853-86.667c24.067-41.558,33.44-60.667,77.333-60.667
	c14.499,0,54.945-16.208,68-10c16.628,7.906,33.675,40.537,50.667,50.667C446.334,275,465,327,442.416,361H177.814z"/>
<path fill="#7F7F7F" d="M16.814,506c0-41.775,0.565-69.005,30.853-101.667c12.612-13.601,39.713-23.374,60.667-36
	c16.656-10.037,26.94-24.634,40.782-24.634c73.067,0,132.301,89.301,132.301,162.301H16.814z"/>
<path fill="#7F7F7F" d="M143,496c0-73,62.805-184.868,132.301-162.301C345,356.333,407.602,423,407.602,496H143z"/>
<g>
	<polygon points="103.333,400 84,506 206.333,505.667 189.333,398 	"/>
	<polygon fill="#8A360F" points="72.804,506 93.964,384.357 107.481,386.729 86.421,506 	"/>
	<polygon fill="#8A360F" points="215,506 193.519,384.141 180.733,386.403 201.019,506 	"/>
	<rect x="101" y="392" fill="#8A360F" width="88" height="14"/>
</g>
<path fill="#999999" d="M176.327,544c1.333-53.309,39.874-95.625,62.638-109.282c39.981-23.989,24.351-56.164,57.307-82.629
	c25.923-20.818,77.589-24.39,109.684-24.39c19.914,0,39.056,4.977,56.91,13.728c25.406,12.45,48.201,32.543,66.898,56.808
	c32.417,42.069,52.511,96.682,52.511,145.766H176.327z"/>
<rect x="335" y="367" fill="#8A360F" width="13" height="177"/>
<rect x="430" y="367" fill="#8A360F" width="13" height="177"/>
<rect x="311" y="389" fill="#FFFFFF" width="153" height="100"/>
<path fill="#990D0D" d="M437.187,446.144c0,8.716-8.982,19.521-13.681,26.117c-7.315,10.269-24.432,10.642-38.001,10.642
	c-11.643,0-20.964,1.393-28.328-6.496c-6.731-7.209-19.634-18.471-18.241-29.019c2.901-21.973,20.729-26.018,23.63-33.994
	c4.975-13.68,21.682-16.997,34.823-16.997c8.771,0,16.596,8.516,23.216,13.267C430.803,416.985,437.187,432.628,437.187,446.144z"/>
</svg>
