<?xml version="1.0" encoding="utf-8"?>
<!-- Generator: Adobe Illustrator 15.0.0, SVG Export Plug-In . SVG Version: 6.00 Build 0)  -->
<!DOCTYPE svg PUBLIC "-//W3C//DTD SVG 1.1//EN" "http://www.w3.org/Graphics/SVG/1.1/DTD/svg11.dtd">
<svg version="1.1" id="Layer_1" xmlns="http://www.w3.org/2000/svg" xmlns:xlink="http://www.w3.org/1999/xlink" x="0px" y="0px"
	 width="600px" height="600px" viewBox="0 0 600 600" enable-background="new 0 0 600 600" xml:space="preserve">
<rect x="34" y="337" fill="#C1B584" width="533" height="222"/>
<rect x="34" y="548" fill="#938D72" width="521" height="11"/>
<polygon fill="#938D72" points="577.65,337 23,337 100.651,226 500,226 "/>
<rect x="223" y="226" fill="#CEC18A" width="155" height="355"/>
<rect x="223" y="115" fill="#938D72" width="155" height="111"/>
<polygon fill="#6D6956" points="389.069,115 211.581,115 289.232,4 311.418,4 "/>
<path fill="#5B5747" d="M334,492.093c0,0-0.221-11.093-33.5-11.093S267,492.093,267,492.093V581h67V492.093z"/>
<rect x="400" y="470" fill="#5B5747" width="22" height="66"/>
<rect x="456" y="470" fill="#5B5747" width="22" height="66"/>
<rect x="511" y="470" fill="#5B5747" width="22" height="66"/>
<rect x="67" y="470" fill="#5B5747" width="23" height="66"/>
<rect x="123" y="470" fill="#5B5747" width="22" height="66"/>
<rect x="178" y="470" fill="#5B5747" width="22" height="66"/>
<g>
	<rect x="67" y="359" fill="#5B5747" width="23" height="67"/>
	<rect x="123" y="359" fill="#5B5747" width="22" height="67"/>
	<rect x="178" y="359" fill="#5B5747" width="22" height="67"/>
</g>
<rect x="400" y="359" fill="#5B5747" width="22" height="67"/>
<rect x="456" y="359" fill="#5B5747" width="22" height="67"/>
<rect x="511" y="359" fill="#5B5747" width="22" height="67"/>
<rect x="411" y="270" fill="#5B5747" width="22" height="45"/>
<rect x="467" y="270" fill="#5B5747" width="22" height="45"/>
<rect x="112" y="270" fill="#5B5747" width="22" height="45"/>
<rect x="167" y="270" fill="#5B5747" width="22" height="45"/>
<rect x="267" y="370" fill="#5B5747" width="22" height="67"/>
<rect x="245" y="270" fill="#5B5747" width="11" height="45"/>
<rect x="278" y="270" fill="#5B5747" width="11" height="45"/>
<rect x="311" y="270" fill="#5B5747" width="12" height="45"/>
<rect x="345" y="270" fill="#5B5747" width="11" height="45"/>
<rect x="311" y="370" fill="#5B5747" width="23" height="67"/>
<rect x="267" y="137" fill="#5B5747" width="22" height="67"/>
<rect x="311" y="137" fill="#5B5747" width="23" height="67"/>
<polyline fill="#444136" points="101,270 145.023,270 123.012,247.814 "/>
<polyline fill="#444136" points="156,270 200.488,270 178.244,247.814 "/>
<polyline fill="#444136" points="400,270 444.535,270 422.268,247.814 "/>
<polyline fill="#444136" points="456,270 500,270 478,247.814 "/>
<g>
	<path fill="#3D7229" d="M223,547.558c0,13.206,0,44.442,0,44.442s-49.93,0-66.884,0C137.732,592,90,592,90,592s0-32.19,0-44.442
		c0-24.504,29.732-44.372,66.5-44.372S223,523.054,223,547.558z"/>
	<circle fill="#519136" cx="145.023" cy="525.372" r="22.186"/>
	<circle fill="#519136" cx="111.744" cy="558.65" r="22.186"/>
	<circle fill="#519136" cx="200.488" cy="569.744" r="22.186"/>
</g>
<circle fill="#444136" cx="300.326" cy="81.651" r="22.186"/>
<polyline fill="none" stroke="#FFF3CC" stroke-width="5" stroke-linecap="round" stroke-miterlimit="10" points="315,80.5 
	303.325,80.5 312.057,67.326 "/>
<rect x="555" y="337" fill="#938D72" width="12" height="222"/>
<rect x="378" y="559" fill="#938D72" width="11" height="33"/>
<rect x="34" y="337" fill="#938D72" width="11" height="222"/>
<rect x="223" y="581" fill="#938D72" width="155" height="11"/>
</svg>
